<?xml version="1.0" encoding="UTF-8"?>
<svg id="Capa_1" data-name="Capa 1" xmlns="http://www.w3.org/2000/svg" version="1.1" viewBox="0 0 662 274.6">
  <defs>
    <style>
      .cls-1 {
        fill: #363e42;
      }

      .cls-1, .cls-2, .cls-3 {
        stroke-width: 0px;
      }

      .cls-2 {
        fill: #9e0059;
      }

      .cls-3 {
        fill: #fff;
      }
    </style>
  </defs>
  <g>
    <rect class="cls-3" x="38.1" y="38.1" width="198.4" height="198.4"/>
    <g>
      <rect class="cls-2" x="198.4" y="118.2" width="38.1" height="38.1"/>
      <rect class="cls-2" x="198.4" y="78.2" width="38.1" height="38.1"/>
      <rect class="cls-2" x="158.3" y="198.4" width="38.1" height="38.1"/>
      <rect class="cls-2" x="198.4" y="158.3" width="38.1" height="38.1"/>
      <rect class="cls-2" x="198.4" y="38.1" width="38.1" height="38.1"/>
      <rect class="cls-2" x="118.3" y="158.3" width="38.1" height="38.1"/>
      <rect class="cls-2" x="118.3" y="198.4" width="38.1" height="38.1"/>
      <rect class="cls-2" x="158.3" y="118.2" width="38.1" height="38.1"/>
      <rect class="cls-2" x="118.3" y="118.2" width="38.1" height="38.1"/>
      <rect class="cls-3" x="78.2" y="118.2" width="38.1" height="38.1"/>
      <rect class="cls-2" x="158.3" y="38.1" width="38.1" height="38.1"/>
      <rect class="cls-2" x="118.3" y="38.1" width="38.1" height="38.1"/>
      <rect class="cls-2" x="158.3" y="158.3" width="38.1" height="38.1"/>
      <rect class="cls-2" x="38.1" y="118.2" width="38.1" height="38.1"/>
      <rect class="cls-2" x="78.2" y="78.2" width="38.1" height="38.1"/>
      <rect class="cls-2" x="38.1" y="78.2" width="38.1" height="38.1"/>
      <rect class="cls-2" x="38.1" y="158.3" width="38.1" height="38.1"/>
      <rect class="cls-2" x="38.1" y="198.4" width="38.1" height="38.1"/>
      <rect class="cls-2" x="78.2" y="158.3" width="38.1" height="38.1"/>
      <rect class="cls-2" x="78.2" y="198.4" width="38.1" height="38.1"/>
      <rect class="cls-3" x="78.2" y="38.1" width="38.1" height="38.1"/>
      <rect class="cls-2" x="118.3" y="78.2" width="38.1" height="38.1"/>
      <rect class="cls-2" x="198.4" y="198.4" width="38.1" height="38.1"/>
      <rect class="cls-3" x="158.3" y="78.2" width="38.1" height="38.1"/>
    </g>
    <rect class="cls-2" x="38.1" y="38.1" width="38.1" height="38.1"/>
  </g>
  <g>
    <path class="cls-2" d="M483.5,96.3h-3.1v-58.1h31.1v2.9h-28v24.4h25v2.9h-25v27.9Z"/>
    <path class="cls-2" d="M566,88.3c-5.5,5.8-12.3,8.8-20.3,8.8s-14.8-2.9-20.3-8.8c-5.5-5.9-8.3-12.9-8.3-21.1s2.8-15.2,8.3-21.1c5.6-5.8,12.4-8.8,20.3-8.8s14.8,2.9,20.3,8.8c5.6,5.8,8.4,12.9,8.4,21.1s-2.8,15.3-8.4,21.1ZM527.6,86.3c5,5.3,11,7.9,18.2,7.9s13.2-2.6,18.2-7.9c5-5.3,7.5-11.6,7.5-19.1s-2.5-13.9-7.5-19.1c-5-5.3-11-7.9-18.2-7.9s-13.2,2.6-18.2,7.9c-5,5.2-7.5,11.6-7.5,19.1s2.5,13.9,7.5,19.1Z"/>
    <path class="cls-2" d="M607.9,70.9l16,25.3h-3.9l-15.6-25c-.3,0-.9,0-1.9,0h-13.1v24.9h-3.4v-58.1h17.6c6.5,0,11.4,1.6,14.8,4.9,3.4,3.2,5.2,7.1,5.2,11.7s-1.4,7.3-4.1,10.4c-2.6,3-6.5,4.9-11.7,5.8ZM589.5,41v27.4h13.3c5.4,0,9.7-1.3,12.8-3.8,3.1-2.5,4.7-5.8,4.7-10s-1.5-7.4-4.5-9.9c-3-2.5-7-3.7-12.1-3.7h-14.2Z"/>
  </g>
  <g>
    <path class="cls-2" d="M313.6,176.3h-38.9v-58h11.7v46.9h27.2v11.1Z"/>
    <path class="cls-2" d="M349.3,177.2c-8.5,0-15.5-2.8-21.1-8.5-5.7-5.7-8.5-12.8-8.5-21.1s2.9-15.5,8.6-21.4c5.8-5.8,12.8-8.8,21.1-8.8s15.3,2.9,21,8.8c5.8,5.8,8.6,12.9,8.6,21.2s-2.9,15.3-8.6,21.1c-5.7,5.8-12.7,8.7-21.1,8.7ZM367.2,147.4c0-5.3-1.7-9.7-5.2-13.2-3.5-3.5-7.7-5.3-12.6-5.3s-9.1,1.8-12.6,5.3c-3.4,3.5-5.2,7.9-5.2,13.2s1.7,9.6,5.1,13.1c3.4,3.5,7.7,5.2,12.7,5.2s9.3-1.7,12.7-5.2c3.4-3.5,5.1-7.9,5.1-13.1Z"/>
    <path class="cls-2" d="M425.6,154.2v-36h11.7v58.1h-10.4l-24.1-35.6v35.6h-11.7v-58.1h9.9l24.6,36Z"/>
    <path class="cls-2" d="M470.8,176.4h-21.7v-58.1h22.1c8.5,0,15.2,2.6,20,7.9,4.8,5.2,7.3,12.4,7.3,21.3s-2.5,16-7.4,21.2c-4.9,5.2-11.7,7.8-20.3,7.8ZM460.5,129.5v35.8h10.9c4.8,0,8.6-1.7,11.3-5.1,2.7-3.4,4.1-7.7,4.1-12.9s-1.4-9.3-4.1-12.7c-2.7-3.4-6.5-5.1-11.3-5.1h-10.9Z"/>
    <path class="cls-2" d="M537.5,177.2c-8.5,0-15.5-2.8-21.1-8.5-5.7-5.7-8.5-12.8-8.5-21.1s2.9-15.5,8.6-21.4c5.8-5.8,12.8-8.8,21.1-8.8s15.3,2.9,21,8.8c5.8,5.8,8.6,12.9,8.6,21.2s-2.9,15.3-8.6,21.1c-5.7,5.8-12.7,8.7-21.1,8.7ZM555.4,147.4c0-5.3-1.7-9.7-5.2-13.2-3.5-3.5-7.7-5.3-12.6-5.3s-9.1,1.8-12.6,5.3c-3.4,3.5-5.2,7.9-5.2,13.2s1.7,9.6,5.1,13.1c3.4,3.5,7.7,5.2,12.7,5.2s9.3-1.7,12.7-5.2c3.4-3.5,5.1-7.9,5.1-13.1Z"/>
    <path class="cls-2" d="M612.2,154.2v-36h11.7v58.1h-10.4l-24.1-35.6v35.6h-11.7v-58.1h9.9l24.6,36Z"/>
  </g>
  <g>
    <path class="cls-2" d="M296.3,96.3h-21.7v-58.1h22.1c8.5,0,15.2,2.6,20,7.9,4.8,5.2,7.3,12.4,7.3,21.3s-2.5,16-7.4,21.2c-4.9,5.2-11.7,7.8-20.3,7.8ZM286,49.3v35.8h10.9c4.8,0,8.6-1.7,11.3-5.1,2.7-3.4,4.1-7.7,4.1-12.9s-1.4-9.3-4.1-12.7c-2.7-3.4-6.5-5.1-11.3-5.1h-10.9Z"/>
    <path class="cls-2" d="M377.4,96.3h-13.9l-3.5-9.7h-21.3l-3.7,9.7h-13.8l23.3-58.1h10l23,58.1ZM356.5,76.2l-7.1-18.7-7.3,18.7h14.4Z"/>
    <path class="cls-2" d="M386.8,96.3v-46.9h-17.1v-11.3h46.3v11.3h-17.1v46.9h-12.1Z"/>
    <path class="cls-2" d="M464,96.3h-13.9l-3.5-9.7h-21.3l-3.7,9.7h-13.8l23.3-58.1h10l23,58.1ZM443.1,76.2l-7.1-18.7-7.3,18.7h14.4Z"/>
  </g>
  <g>
    <polygon class="cls-1" points="280.7 198.4 274.7 198.4 274.7 236.5 297.1 236.5 297.1 231.1 280.7 231.1 280.7 198.4"/>
    <rect class="cls-1" x="306.8" y="198.4" width="6" height="38.1"/>
    <path class="cls-1" d="M348.3,217.4c-.5-.5-1.2-1-1.9-1.4.8-.6,1.5-1.4,2-2.2.9-1.5,1.4-3.2,1.4-5s-.5-3.9-1.4-5.5c-.9-1.6-2.2-2.7-4-3.6-1.7-.8-3.8-1.3-6.2-1.3h-16.1v38.1h16.1c4.1,0,7.3-1,9.6-3.1s3.5-4.9,3.5-8.4-.2-2.8-.7-4.1c-.5-1.3-1.3-2.5-2.4-3.5ZM328.3,203.6h10.2c1.6,0,2.9.4,3.9,1.3,1,.9,1.5,2,1.5,3.6s-.5,2.8-1.5,3.7c-1,.9-2.3,1.4-3.9,1.4h-10.2v-10ZM343.6,229.5c-1.2,1.1-2.8,1.7-4.8,1.7h-10.5v-12.2h10.5c2,0,3.6.6,4.8,1.7,1.2,1.1,1.8,2.6,1.8,4.5s-.6,3.3-1.8,4.4Z"/>
    <path class="cls-1" d="M383.9,217.1c1.3-1.9,2-4.1,2-6.7s-.6-4.6-1.7-6.4c-1.1-1.8-2.6-3.2-4.6-4.1-1.9-.9-4.2-1.4-6.7-1.4h-13.9v38.1h6v-14.3h7.4l8.1,14.3h6.9l-8.8-15.3c2.2-.9,4-2.2,5.3-4.1ZM376.6,216c-1,.5-2.2.8-3.6.8h-7.9v-13h7.9c1.4,0,2.6.3,3.6.8,1,.5,1.8,1.3,2.4,2.2.6,1,.8,2.1.8,3.5s-.3,2.5-.8,3.5c-.6,1-1.4,1.7-2.4,2.3Z"/>
    <path class="cls-1" d="M407,198.4l-13.4,38.1h6.4l3-8.5h15.5l2.9,8.5h6.4l-13.4-38.1h-7.5ZM404.8,222.6l6-17.5,5.9,17.5h-11.9Z"/>
    <path class="cls-1" d="M459.5,217.1c1.3-1.9,2-4.1,2-6.7s-.6-4.6-1.7-6.4c-1.1-1.8-2.6-3.2-4.6-4.1-1.9-.9-4.2-1.4-6.7-1.4h-13.9v38.1h6v-14.3h7.4l8.1,14.3h6.9l-8.8-15.3c2.2-.9,4-2.2,5.3-4.1ZM452.2,216c-1,.5-2.2.8-3.6.8h-7.9v-13h7.9c1.4,0,2.6.3,3.6.8,1,.5,1.8,1.3,2.4,2.2.6,1,.8,2.1.8,3.5s-.3,2.5-.8,3.5c-.6,1-1.4,1.7-2.4,2.3Z"/>
    <polygon class="cls-1" points="491.7 198.4 482.6 213.4 473.3 198.4 466.5 198.4 479.6 219.3 479.6 236.5 485.5 236.5 485.5 219.3 498.5 198.4 491.7 198.4"/>
  </g>
</svg>